<svg xmlns="http://www.w3.org/2000/svg" viewBox="0 0 228 126"><g id="Layer_2" data-name="Layer 2"><g id="Layer_1-2" data-name="Layer 1"><path d="M.15,100.38l64.38-74.9H81.65l2.49,74.9H66L66,34l10.41.25-58.5,66.13ZM17,83,33.26,70h43L83,83Z" fill="#5f249f"/><path d="M93,100.38V25.48h13.91V86.25H137v14.13Z" fill="#5f249f"/><path d="M145.58,100.38V25.48h14l31.14,52.86h-7.42L213.9,25.48h13.89l.21,74.9H212.12l-.1-50h2.92L190.5,92.46h-7.63l-25-42h3.55v50Z" fill="#5f249f"/><polygon points="228 14 73 14 83.4 0 228 0 228 14" fill="#5f249f"/><rect y="112" width="228" height="14" fill="#5f249f"/></g></g></svg>